<?xml version="1.0" standalone="no"?>
<!DOCTYPE svg PUBLIC "-//W3C//DTD SVG 20010904//EN"
 "http://www.w3.org/TR/2001/REC-SVG-20010904/DTD/svg10.dtd">
<svg version="1.0" xmlns="http://www.w3.org/2000/svg"
 width="600.000000pt" height="600.000000pt" viewBox="0 0 600.000000 600.000000"
 preserveAspectRatio="xMidYMid meet">
<g transform="translate(0.000000,600.000000) scale(0.100000,-0.100000)"
fill="#fd6f2f" stroke="none">
<path d="M3045 4930 c-849 -45 -1514 -301 -1689 -651 -84 -168 -69 -307 49
-437 74 -82 259 -202 311 -202 9 0 277 70 596 156 319 85 583 153 586 149 3
-3 69 -128 146 -278 102 -197 148 -275 166 -285 48 -26 536 3 833 48 322 49
556 116 772 221 198 95 319 203 365 326 19 49 21 72 17 153 -5 109 -26 170
-87 259 -248 366 -1107 591 -2065 541z"/>
<path d="M2590 3774 c-107 -29 -342 -93 -522 -141 l-328 -87 0 -218 c0 -120 2
-218 3 -218 2 0 91 38 198 83 107 46 195 83 197 82 2 -2 16 -188 31 -414 16
-226 30 -414 33 -416 3 -3 137 42 298 100 161 58 295 105 296 105 7 0 3 1169
-4 1173 -4 2 -95 -20 -202 -49z"/>
<path d="M1300 3368 l0 -447 73 31 c39 17 117 50 172 73 l100 41 3 247 2 246
-52 27 c-85 42 -168 102 -235 167 l-63 61 0 -446z"/>
<path d="M5140 3755 c-255 -260 -909 -445 -1662 -472 l-188 -6 0 -644 0 -643
93 0 c199 0 548 34 773 75 538 99 893 273 1010 496 l29 54 -5 385 c-3 212 -5
478 -5 593 0 114 0 207 0 207 -1 0 -21 -20 -45 -45z"/>
<path d="M2890 3126 l0 -628 134 -222 c74 -121 142 -230 150 -241 14 -18 15
44 16 617 l0 637 -27 15 c-46 23 -68 55 -141 201 -39 77 -84 165 -101 195
l-31 55 0 -629z"/>
<path d="M1773 3022 c-149 -65 -409 -175 -578 -247 -267 -113 -309 -134 -326
-161 -69 -112 58 -185 375 -214 66 -6 198 -21 291 -32 200 -24 421 -28 480 -9
22 8 51 23 64 35 22 20 23 25 18 126 -12 234 -41 620 -46 619 -3 -1 -128 -53
-278 -117z"/>
<path d="M805 1809 c8 -598 8 -596 62 -617 45 -18 256 -59 413 -81 162 -22
342 -37 566 -46 162 -7 200 0 224 44 6 13 10 212 10 571 l0 551 -22 -8 c-38
-13 -402 -6 -584 12 -262 26 -599 85 -656 116 l-21 11 8 -553z"/>
</g>
</svg>
