<?xml version="1.0" standalone="no"?> <!DOCTYPE svg PUBLIC "-//W3C//DTD SVG 20010904//EN" "http://www.w3.org/TR/2001/REC-SVG-20010904/DTD/svg10.dtd"> <svg version="1.0" xmlns="http://www.w3.org/2000/svg" width="600.000000pt" height="600.000000pt" viewBox="0 0 600.000000 600.000000" preserveAspectRatio="xMidYMid meet"> <g transform="translate(0.000000,600.000000) scale(0.100000,-0.100000)" fill="#1f8a84" stroke="none"> <path d="M2133 5982 c-59 -21 -112 -59 -143 -102 l-21 -29 -41 30 c-126 91 -310 70 -418 -47 -105 -114 -115 -250 -30 -419 22 -44 47 -89 55 -99 15 -19 16 -19 53 16 148 142 329 218 516 218 133 0 237 -33 337 -105 27 -19 53 -35 57 -35 5 0 19 35 33 77 34 111 34 256 -1 328 -31 64 -92 124 -154 155 -67 32 -172 37 -243 12z"/> <path d="M1970 5396 c-156 -43 -302 -155 -399 -306 -261 -404 -52 -1103 566 -1898 292 -375 691 -774 1069 -1068 428 -333 885 -570 1239 -641 64 -12 134 -17 240 -17 130 1 161 4 230 25 122 37 208 90 300 183 133 135 185 246 193 406 3 79 0 106 -18 159 -71 212 -265 351 -730 526 -196 74 -300 126 -443 223 -430 289 -1026 897 -1275 1298 -73 118 -112 201 -177 374 -203 546 -386 752 -667 749 -46 0 -103 -6 -128 -13z m499 -1537 c174 -39 324 -75 334 -81 26 -13 38 -53 27 -83 -20 -52 -39 -52 -292 5 -468 105 -447 99 -463 130 -23 45 7 100 53 100 14 0 168 -32 341 -71z m669 -670 c175 -39 325 -76 335 -81 47 -24 38 -103 -13 -121 -36 -13 -689 134 -707 159 -21 29 -16 81 9 98 12 9 31 16 41 16 10 0 161 -32 335 -71z m681 -673 c274 -62 327 -77 343 -96 10 -12 18 -31 18 -42 0 -24 -43 -68 -67 -68 -10 0 -166 33 -347 74 -354 79 -356 80 -356 142 0 36 29 64 65 64 11 -1 166 -34 344 -74z"/> <path d="M734 4567 c-66 -17 -115 -48 -158 -100 l-35 -42 -23 22 c-67 64 -199 85 -305 49 -109 -36 -199 -154 -210 -273 -8 -93 40 -243 105 -323 l20 -25 44 41 c257 237 592 280 843 108 l64 -43 20 54 c64 171 48 331 -45 434 -81 90 -204 127 -320 98z"/> <path d="M569 3979 c-177 -41 -359 -187 -448 -358 -109 -210 -110 -487 -2 -809 274 -822 1215 -1890 2148 -2441 244 -144 522 -260 733 -306 117 -26 329 -31 431 -11 292 58 537 317 556 586 10 141 -31 251 -136 362 -115 122 -272 211 -596 333 -106 40 -223 89 -261 108 -408 206 -1100 862 -1435 1361 -101 149 -136 220 -214 426 -131 347 -205 482 -329 605 -83 83 -152 125 -237 144 -52 12 -159 12 -210 0z m478 -1543 c220 -49 329 -78 343 -91 43 -39 14 -115 -45 -115 -11 0 -164 32 -340 71 -277 62 -323 74 -342 96 -13 13 -23 33 -23 44 0 25 43 69 67 69 10 -1 163 -34 340 -74z m666 -670 c219 -49 334 -79 347 -91 41 -37 15 -115 -39 -115 -14 0 -170 32 -346 71 -278 62 -323 74 -342 95 -13 14 -23 34 -23 45 0 22 42 69 62 69 7 0 160 -33 341 -74z m670 -670 c220 -49 334 -79 347 -91 42 -38 15 -115 -42 -115 -15 0 -171 32 -346 71 -280 62 -320 73 -340 96 -17 19 -22 33 -17 52 6 27 39 61 59 61 6 0 158 -33 339 -74z"/> <path d="M5565 2554 c-29 -8 -149 -46 -157 -51 -4 -2 9 -25 29 -51 76 -99 113 -212 113 -348 0 -187 -76 -368 -218 -516 -35 -37 -35 -38 -16 -53 45 -35 183 -96 240 -106 115 -20 221 16 298 102 100 109 112 270 31 388 l-33 48 43 36 c25 22 55 61 72 94 24 50 28 70 28 143 -1 100 -24 160 -90 225 -64 64 -124 88 -230 91 -49 2 -99 1 -110 -2z"/> <path d="M4125 1125 c-33 -7 -79 -21 -103 -30 l-42 -17 35 -48 c181 -247 144 -587 -93 -851 l-46 -51 24 -20 c80 -65 230 -113 323 -105 245 22 377 312 230 505 l-26 35 42 34 c143 120 143 348 0 477 -86 77 -205 102 -344 71z"/> </g> </svg>