<?xml version="1.0" standalone="no"?>
<!DOCTYPE svg PUBLIC "-//W3C//DTD SVG 20010904//EN"
 "http://www.w3.org/TR/2001/REC-SVG-20010904/DTD/svg10.dtd">
<svg version="1.0" xmlns="http://www.w3.org/2000/svg"
 width="63.000000pt" height="75.000000pt" viewBox="0 0 63.000000 75.000000"
 preserveAspectRatio="xMidYMid meet">
<g transform="translate(0.000000,75.000000) scale(0.100000,-0.100000)"
fill="#ffcc33" stroke="none">
<path d="M175 553 c-40 -20 -103 -81 -121 -115 l-14 -28 266 1 267 1 -178 79
c-97 43 -180 79 -184 79 -3 -1 -19 -8 -36 -17z m130 -45 c28 -13 32 -26 10
-34 -23 -9 -65 4 -65 20 0 12 5 17 27 25 1 1 14 -4 28 -11z"/>
<path d="M42 248 l3 -133 25 1 c209 10 504 35 516 45 16 13 6 99 -14 122 -14
15 -13 19 1 35 10 10 17 28 17 40 0 21 -5 22 -79 22 -58 0 -82 -4 -91 -15 -7
-8 -23 -15 -35 -15 -12 0 -28 7 -35 15 -10 12 -41 15 -162 15 l-149 0 3 -132z
m160 85 c22 -20 23 -31 1 -55 -20 -22 -66 -24 -87 -2 -47 47 36 103 86 57z
m287 -77 c25 -30 -24 -71 -54 -46 -16 13 -20 42 -8 53 11 12 50 8 62 -7z
m-141 -22 c17 -12 22 -24 20 -47 l-3 -32 -60 0 -60 0 -3 32 c-5 53 57 81 106
47z"/>
</g>
</svg>
