<?xml version="1.0" standalone="no"?>
<!DOCTYPE svg PUBLIC "-//W3C//DTD SVG 20010904//EN"
 "http://www.w3.org/TR/2001/REC-SVG-20010904/DTD/svg10.dtd">
<svg version="1.0" xmlns="http://www.w3.org/2000/svg"
 width="166.000000pt" height="138.000000pt" viewBox="0 0 166.000000 138.000000"
 preserveAspectRatio="xMidYMid meet">
<g transform="translate(0.000000,138.000000) scale(0.100000,-0.100000)"
fill="#000000" stroke="none">
<path d="M937 1339 c-15 -9 -17 -18 -11 -55 l6 -44 -55 0 c-48 0 -58 -3 -77
-27 -20 -26 -21 -36 -18 -221 3 -178 5 -195 22 -208 15 -10 55 -14 162 -14
186 0 174 -17 174 237 0 229 -2 233 -95 233 l-55 0 7 46 c8 59 -15 79 -60 53z
m39 -20 c10 -17 -13 -36 -27 -22 -12 12 -4 33 11 33 5 0 12 -5 16 -11z"/>
<path d="M148 1191 c-43 -27 -71 -59 -97 -108 l-12 -23 272 1 c150 1 266 5
258 9 -49 27 -341 150 -356 150 -11 0 -40 -13 -65 -29z m166 -32 c31 -14 25
-29 -12 -29 -34 0 -57 14 -48 29 9 14 28 14 60 0z"/>
<path d="M40 911 c0 -82 4 -132 11 -136 13 -9 495 25 527 36 19 7 22 16 22 58
0 31 -5 53 -15 61 -19 16 -19 34 0 50 8 7 15 23 15 36 0 23 -2 24 -84 24 -62
0 -87 -4 -96 -15 -7 -8 -23 -15 -35 -15 -12 0 -28 7 -35 15 -10 12 -41 15
-161 15 l-149 0 0 -129z m168 71 c6 -9 12 -19 12 -23 0 -17 -34 -39 -60 -39
-26 0 -60 22 -60 38 1 25 47 53 75 46 11 -3 26 -13 33 -22z m278 -66 c15 -12
17 -18 8 -33 -6 -10 -21 -18 -34 -18 -13 0 -28 8 -34 18 -9 15 -7 21 8 33 11
8 23 14 26 14 3 0 15 -6 26 -14z m-132 -29 c12 -9 17 -23 14 -42 -3 -28 -6
-30 -56 -35 -56 -6 -72 2 -72 34 0 47 71 74 114 43z"/>
<path d="M1122 657 c-34 -8 -49 -19 -68 -48 -35 -55 -64 -60 -108 -15 -43 43
-89 53 -139 32 -28 -11 -37 -21 -37 -38 0 -53 75 -128 128 -128 13 0 36 7 53
15 26 14 30 14 35 0 3 -8 4 -21 1 -29 -3 -7 -2 -17 3 -22 5 -5 15 -45 24 -89
8 -44 22 -97 31 -117 9 -24 13 -52 10 -75 -6 -35 -3 -40 28 -60 27 -19 47 -23
108 -23 92 0 119 20 119 88 0 23 9 70 19 104 20 65 40 157 44 195 3 32 12 36
50 22 19 -6 46 -9 60 -5 36 9 93 60 105 95 13 38 0 56 -51 70 -48 12 -80 2
-124 -42 -29 -27 -37 -30 -60 -21 -16 5 -34 21 -40 35 -17 36 -30 44 -85 58
-52 12 -47 12 -106 -2z"/>
<path d="M167 624 c-7 -8 20 -99 46 -152 12 -24 40 -61 64 -83 46 -42 128 -87
139 -76 13 13 16 103 5 145 -14 52 -61 106 -113 133 -52 26 -72 19 -26 -9 32
-20 69 -61 93 -102 5 -8 -16 10 -46 40 -53 53 -150 116 -162 104z"/>
<path d="M523 590 c-18 -10 -39 -33 -48 -51 -19 -35 -33 -139 -19 -139 5 0 25
22 44 47 19 26 59 73 89 105 l53 58 -43 0 c-26 0 -57 -8 -76 -20z"/>
<path d="M546 435 c-22 -7 -52 -27 -68 -42 -29 -29 -75 -133 -59 -133 5 0 11
6 14 14 3 7 23 17 44 20 59 11 140 51 158 79 9 14 15 36 13 49 -4 29 -45 34
-102 13z m64 -10 c0 -3 -27 -19 -61 -35 -34 -17 -58 -26 -54 -20 4 7 31 23 59
36 56 26 56 26 56 19z"/>
</g>
</svg>
