<?xml version="1.0" standalone="no"?> <!DOCTYPE svg PUBLIC "-//W3C//DTD SVG 20010904//EN" "http://www.w3.org/TR/2001/REC-SVG-20010904/DTD/svg10.dtd"> <svg version="1.0" xmlns="http://www.w3.org/2000/svg" width="600.000000pt" height="468.000000pt" viewBox="0 0 600.000000 468.000000" preserveAspectRatio="xMidYMid meet"> <g transform="translate(0.000000,468.000000) scale(0.100000,-0.100000)" fill="#666633" stroke="none"> <path d="M2155 4655 c-86 -22 -360 -117 -371 -128 -3 -3 0 -15 6 -27 6 -11 10 -25 8 -30 -2 -4 -88 -52 -193 -105 -169 -87 -198 -98 -263 -106 -92 -10 -131 -32 -158 -87 -19 -41 -29 -47 -170 -116 -191 -93 -729 -394 -927 -519 -85 -53 -105 -126 -68 -248 11 -35 29 -102 41 -149 46 -184 116 -287 353 -516 282 -273 750 -648 1092 -874 77 -50 144 -99 149 -109 14 -26 98 -111 131 -131 17 -10 54 -22 83 -26 45 -6 63 -16 130 -71 201 -168 630 -478 1012 -731 361 -239 484 -302 596 -302 81 0 399 103 650 210 138 59 318 152 394 203 49 33 55 35 74 21 51 -35 134 -5 166 61 21 42 29 48 223 148 306 157 579 328 753 471 136 111 141 130 102 369 -19 117 -20 143 -10 180 32 107 36 164 23 282 -18 165 -30 194 -123 291 -223 233 -997 750 -1598 1069 -220 116 -212 111 -250 164 -44 61 -83 81 -155 81 -48 0 -68 5 -97 25 -107 73 -731 421 -1003 560 -224 115 -363 165 -453 165 -31 -1 -97 -12 -147 -25z m46 -191 c-19 -77 -48 -258 -53 -339 -3 -37 -5 -40 -32 -38 -16 1 -30 4 -32 6 -10 9 31 223 57 302 29 85 66 161 76 152 2 -3 -5 -40 -16 -83z m-280 -24 c30 -77 102 -310 97 -315 -2 -3 -14 -2 -26 2 -18 4 -29 29 -68 152 -25 80 -49 159 -55 175 -13 43 -11 58 8 54 11 -2 28 -28 44 -68z m709 -135 c-54 -464 -47 -432 -89 -397 l-21 17 35 170 c20 94 46 220 58 280 18 92 23 103 26 70 1 -22 -2 -85 -9 -140z m-1160 -75 c119 -15 264 -52 480 -122 483 -157 760 -301 1390 -723 659 -442 941 -656 1145 -867 253 -262 373 -501 461 -923 35 -167 40 -404 11 -527 -31 -131 -42 -116 -43 55 -3 418 -134 873 -327 1136 -99 135 -337 366 -377 366 -10 0 -44 25 -76 55 -202 191 -749 584 -1139 818 -171 102 -790 420 -939 482 -55 23 -192 72 -305 110 -276 93 -403 109 -509 64 -43 -17 -50 -12 -28 20 20 31 44 45 99 56 59 11 63 11 157 0z m1340 -264 c-7 -7 -10 23 -10 96 0 147 14 170 18 29 2 -69 -1 -118 -8 -125z m193 -36 c-3 -150 -8 -198 -18 -209 -8 -8 -17 -12 -21 -9 -8 9 12 434 22 450 16 26 21 -39 17 -232z m139 4 c4 -138 4 -138 -8 -64 -7 41 -15 127 -18 190 -5 109 -5 112 8 64 7 -27 15 -113 18 -190z m-270 28 c-2 -45 -8 -82 -13 -82 -10 0 -12 117 -2 175 6 36 7 38 13 15 4 -14 5 -62 2 -108z m216 -22 c0 -67 -3 -96 -8 -80 -11 35 -11 231 0 205 5 -11 8 -67 8 -125z m284 36 c10 -66 10 -79 -3 -86 -18 -12 -26 21 -28 115 -1 90 15 75 31 -29z m37 24 c15 -69 14 -100 -3 -100 -13 0 -26 59 -26 121 0 46 17 33 29 -21z m-2282 -46 c99 -28 222 -83 483 -213 302 -152 512 -281 580 -357 22 -25 19 -24 -20 7 -47 36 -77 56 -132 87 -18 11 -80 46 -138 79 -264 150 -335 187 -565 291 -124 56 -225 93 -302 112 -29 6 -53 16 -53 21 0 11 41 3 147 -27z m2568 -34 c18 -7 17 -8 -10 -15 -80 -18 -200 -69 -409 -174 l-230 -114 -35 20 c-19 11 -37 26 -39 32 -5 14 251 138 373 181 75 27 284 78 320 78 6 1 19 -3 30 -8z m218 -21 c24 -13 77 -59 77 -68 0 -3 -32 -7 -71 -8 -39 -2 -107 -12 -152 -24 -109 -27 -352 -121 -548 -212 l-76 -35 -37 21 c-20 12 -36 24 -36 27 0 8 192 113 300 163 235 110 476 170 543 136z m-1787 -20 c22 -18 138 -223 214 -378 76 -155 78 -161 59 -172 -24 -13 -21 -16 -49 41 -13 25 -78 144 -145 265 -167 300 -153 269 -119 261 16 -4 34 -12 40 -17z m-1411 -129 c51 -14 98 -21 130 -19 137 10 230 4 300 -20 88 -30 335 -147 481 -228 149 -82 147 -80 172 -118 12 -19 43 -46 69 -61 104 -59 139 -84 156 -113 13 -23 15 -31 5 -31 -7 0 -4 -6 7 -12 11 -6 30 -17 43 -25 l24 -15 -42 -38 c-48 -44 -47 -44 -132 16 -164 116 -637 387 -883 505 -199 95 -404 169 -472 169 -2 0 -1 5 3 11 8 13 33 9 139 -21z m3245 -5 c18 -48 88 -300 94 -340 32 -206 47 -314 56 -395 5 -52 13 -106 17 -119 l6 -25 -31 22 c-26 19 -32 31 -36 75 -4 28 -13 115 -22 192 -17 157 -54 364 -90 503 -13 51 -24 97 -24 102 0 20 21 9 30 -15z m-3194 -56 c99 -35 356 -157 520 -246 339 -186 331 -181 304 -198 -31 -19 9 -74 85 -114 22 -12 51 -29 65 -37 14 -8 46 -23 73 -34 26 -11 50 -27 54 -37 3 -10 15 -26 27 -36 29 -26 10 -15 -132 75 -67 42 -153 94 -190 115 -37 20 -90 52 -118 69 -224 142 -635 345 -816 404 -38 12 -68 25 -68 29 0 11 62 40 87 40 12 1 61 -13 109 -30z m2929 -60 c16 -73 55 -386 55 -447 0 -30 -2 -31 -20 -20 -28 18 -29 23 -45 202 -8 89 -17 193 -21 233 -6 65 -2 103 10 103 2 0 12 -32 21 -71z m168 -11 c22 -71 58 -241 57 -273 -2 -45 -90 291 -90 343 0 27 9 8 33 -70z m-1336 50 c6 -8 6 -57 0 -133 -8 -105 -11 -122 -30 -137 -31 -25 -44 -22 -41 10 5 45 24 194 30 235 6 37 23 48 41 25z m-1885 -34 c91 -33 231 -100 323 -155 132 -79 230 -132 305 -164 41 -18 109 -50 150 -71 l75 -38 -38 -6 c-82 -11 -31 -46 130 -88 90 -23 131 -40 205 -86 148 -90 141 -76 71 -143 -88 -85 -126 -138 -118 -164 10 -31 8 -30 -222 122 -297 197 -367 241 -598 377 -223 131 -511 279 -522 269 -3 -4 9 -12 28 -19 132 -44 590 -315 1017 -601 81 -54 175 -117 210 -139 56 -36 62 -43 48 -56 -13 -13 -22 -11 -78 20 -35 19 -144 88 -243 153 -244 159 -232 152 -390 240 -77 43 -194 115 -260 159 -66 45 -181 119 -255 165 -74 46 -147 92 -162 103 -15 10 -50 23 -78 30 -32 7 -47 15 -41 21 10 10 117 -13 178 -38 40 -17 49 -13 112 40 24 19 53 35 64 36 22 0 22 0 0 9 -32 13 -30 50 3 50 7 0 46 -12 86 -26z m3268 -15 c15 -53 31 -152 26 -157 -4 -3 -46 170 -46 189 0 22 10 6 20 -32z m-1338 -10 c1 -34 -13 -163 -19 -171 -2 -5 -8 -8 -12 -8 -8 0 -4 182 5 209 7 21 26 -1 26 -30z m1817 -239 c62 -225 81 -350 80 -540 -1 -169 -11 -231 -22 -131 -4 35 -7 84 -7 108 0 24 -18 153 -39 286 -22 133 -42 268 -46 300 -4 31 -15 87 -26 124 -13 48 -15 63 -5 53 7 -8 36 -98 65 -200z m-1519 168 c22 -13 40 -25 40 -28 0 -3 -68 -45 -151 -95 -413 -246 -718 -517 -886 -785 -140 -225 -185 -394 -184 -695 0 -146 3 -194 19 -255 11 -41 18 -77 16 -79 -2 -2 -11 2 -20 10 -43 35 -76 173 -89 369 -16 253 45 489 190 735 123 208 308 394 590 590 123 86 403 255 422 255 8 0 32 -10 53 -22z m485 -68 c5 -48 4 -62 -4 -54 -6 6 -14 42 -17 80 -7 88 11 66 21 -26z m440 -44 c16 -100 15 -124 -4 -88 -18 34 -32 206 -15 190 2 -2 10 -48 19 -102z m-830 58 l25 -16 -97 -67 c-173 -117 -470 -350 -602 -470 -101 -92 -271 -289 -335 -389 -98 -150 -166 -341 -182 -507 -11 -119 12 -312 50 -420 31 -89 32 -95 14 -95 -53 0 -79 39 -107 162 -54 231 -27 534 67 757 85 201 258 424 466 600 173 146 397 304 559 395 48 27 90 53 93 57 8 13 22 11 49 -7z m-2755 -9 c23 -8 65 -15 93 -16 69 -2 123 -32 492 -283 72 -49 137 -95 145 -102 26 -25 -7 -15 -62 17 -42 25 -56 29 -70 20 -21 -13 -108 27 -253 118 -49 32 -135 83 -190 115 -124 72 -205 127 -205 138 0 11 0 10 50 -7z m4084 -172 c39 -212 56 -324 55 -373 -1 -33 -7 -10 -25 85 -23 118 -52 264 -72 355 -9 38 -5 70 8 70 4 0 19 -62 34 -137z m-1304 80 c0 -50 -29 -285 -55 -448 -14 -88 -34 -217 -45 -286 l-20 -127 59 -118 c32 -66 94 -203 137 -306 44 -103 82 -188 87 -188 4 0 7 14 7 30 0 17 9 72 20 123 54 252 112 677 132 964 9 126 14 160 25 156 26 -10 15 -278 -27 -628 -11 -93 -25 -213 -31 -265 -16 -141 -66 -407 -83 -441 -13 -27 -12 -35 14 -107 28 -75 100 -250 174 -420 20 -46 36 -90 36 -98 0 -20 6 -18 43 15 30 28 100 83 336 264 136 105 175 133 187 138 5 2 43 28 84 57 201 143 477 312 511 312 23 0 30 -36 10 -53 -9 -7 -52 -35 -96 -62 -151 -91 -180 -110 -405 -261 -238 -159 -447 -313 -542 -398 -31 -28 -77 -66 -102 -84 -41 -30 -46 -31 -54 -15 -34 63 -201 476 -196 484 3 5 0 9 -5 9 -6 0 -10 3 -9 8 3 11 -6 36 -142 377 -70 176 -167 403 -215 505 -86 183 -249 503 -268 528 -7 9 -4 18 8 32 23 26 32 25 40 -2 4 -13 54 -119 111 -236 57 -118 104 -219 104 -225 0 -42 17 44 70 358 60 360 76 435 92 435 4 0 8 -12 8 -27z m1359 -138 c36 -176 61 -369 50 -386 -4 -7 -10 14 -14 47 -3 32 -21 138 -40 234 -43 224 -51 278 -37 265 6 -6 25 -78 41 -160z m316 115 c22 -42 64 -218 80 -335 18 -123 18 -356 1 -530 -7 -71 -11 -147 -10 -168 3 -34 1 -36 -16 -27 -29 16 -33 45 -21 186 20 255 23 379 11 499 -9 102 -45 306 -66 383 -9 31 3 27 21 -8z m-157 -181 c29 -110 42 -208 44 -344 4 -157 -3 -315 -12 -315 -4 0 -11 73 -15 161 -4 89 -10 157 -14 151 -3 -5 -6 43 -7 107 -1 64 -9 156 -18 205 -9 49 -16 98 -16 109 0 39 18 4 38 -74z m378 -144 c4 -55 4 -98 1 -95 -7 7 -37 222 -36 258 2 60 29 -65 35 -163z m33 148 c13 -39 29 -353 17 -342 -3 3 -11 66 -17 140 -5 74 -14 158 -18 187 -9 61 0 68 18 15z m71 -35 c18 -53 34 -265 25 -362 -4 -49 -10 -83 -15 -77 -4 7 -7 70 -8 139 0 70 -8 170 -16 222 -19 112 -19 110 -7 110 5 0 14 -15 21 -32z m94 -86 c4 -21 9 -98 13 -172 7 -160 -6 -273 -48 -419 -44 -154 -69 -186 -30 -39 12 44 24 145 32 253 11 174 8 241 -17 386 -6 35 -5 36 19 32 19 -4 26 -13 31 -41z m112 -161 c4 -49 3 -102 -2 -118 -7 -24 -9 -17 -15 42 -3 39 -7 102 -7 140 -1 97 15 53 24 -64z m45 73 c10 -43 8 -255 -1 -284 -7 -18 -8 -12 -4 20 5 44 -11 246 -22 284 -4 13 -2 17 7 14 8 -3 17 -18 20 -34z m66 -91 c5 -87 -13 -65 -22 27 -6 51 -5 63 5 53 7 -6 14 -42 17 -80z m-153 -66 c-1 -69 -6 -135 -13 -151 -6 -16 -13 -27 -15 -25 -1 2 -1 75 2 162 3 115 8 155 15 148 7 -7 11 -58 11 -134z m268 71 c8 -20 -11 -168 -28 -228 -21 -72 -76 -190 -108 -232 l-25 -34 23 1 c12 1 38 11 57 22 52 33 252 112 334 133 89 23 173 27 203 11 33 -18 18 -31 -36 -31 -90 0 -372 -115 -794 -322 -109 -54 -203 -98 -208 -98 -5 0 -14 9 -20 21 -9 16 -8 25 6 40 9 10 19 17 22 15 2 -3 57 23 121 56 64 34 148 74 186 89 l70 26 52 100 c62 120 101 245 110 359 4 57 10 84 18 84 7 0 15 -6 17 -12z m-1661 -20 l30 -22 -6 -196 c-3 -107 -12 -247 -20 -310 -8 -63 -17 -153 -20 -200 -11 -151 -96 -634 -115 -654 -18 -18 -21 83 -5 184 62 407 84 641 92 968 3 138 8 252 10 252 2 0 17 -10 34 -22z m-1279 -144 c207 -139 249 -174 86 -72 -65 40 -156 95 -203 122 -82 47 -102 66 -71 66 8 0 93 -52 188 -116z m3038 55 c0 -18 -4 -28 -10 -24 -5 3 -10 20 -10 36 0 18 4 28 10 24 6 -3 10 -20 10 -36z m-1925 -204 c0 -90 -3 -157 -7 -147 -4 11 -7 2 -7 -23 -1 -22 -6 -47 -11 -55 -7 -10 -10 27 -10 115 0 180 10 299 24 285 7 -7 11 -69 11 -175z m-1371 68 c39 -26 105 -72 146 -103 41 -30 85 -62 96 -70 114 -79 175 -134 207 -187 44 -73 79 -144 75 -149 -2 -2 -64 33 -138 76 -74 44 -138 80 -142 80 -3 0 -48 24 -100 54 -51 29 -115 66 -143 81 -157 86 -175 98 -175 114 0 20 81 151 94 151 4 0 40 -21 80 -47z m1888 -224 c-2 -155 -7 -196 -42 -373 -22 -109 -41 -201 -44 -203 -2 -3 -7 30 -11 72 -8 82 -2 186 20 385 8 69 15 174 15 234 l0 109 33 -26 32 -25 -3 -173z m-453 86 c1 -106 -10 -196 -20 -170 -10 25 -11 269 -2 279 13 13 22 -28 22 -109z m670 15 c346 -314 523 -726 561 -1302 19 -283 -20 -400 -124 -374 -26 6 -26 7 -11 36 65 126 65 464 -1 765 -42 196 -63 258 -139 410 -82 165 -224 366 -341 485 -62 63 -83 95 -46 68 10 -7 56 -47 101 -88z m-2209 -58 c47 -26 195 -110 330 -186 251 -141 426 -251 451 -283 13 -16 11 -16 -16 2 -16 10 -92 52 -168 92 -76 40 -150 82 -165 92 -15 11 -74 46 -132 79 -253 143 -358 205 -386 227 -49 40 -6 29 86 -23z m3831 -15 c16 -55 15 -270 -1 -327 -14 -50 -51 -90 -149 -158 -61 -43 -62 -43 -47 -15 8 16 44 55 81 87 89 78 98 103 98 251 1 66 -3 142 -7 169 -9 59 8 55 25 -7z m-75 -4 c-26 -150 -146 -477 -210 -571 -36 -53 -111 -113 -326 -256 -133 -89 -310 -196 -323 -196 -3 0 -7 9 -10 19 -3 15 5 26 34 45 53 36 193 250 363 556 75 134 136 238 136 230 0 -21 -123 -273 -169 -345 -21 -33 -68 -112 -106 -175 -38 -63 -84 -136 -103 -162 -18 -27 -31 -48 -28 -48 11 0 237 146 321 208 53 38 83 67 79 74 -5 7 -3 8 5 4 18 -11 92 69 134 146 38 68 89 208 137 376 17 59 33 113 35 120 2 6 12 12 21 12 13 0 15 -7 10 -37z m-2006 -136 c0 -92 -34 -351 -60 -462 -14 -61 -5 81 14 230 9 66 19 170 23 232 3 62 10 110 15 107 4 -3 8 -51 8 -107z m40 -183 c-32 -190 -89 -399 -90 -329 0 11 7 47 14 80 23 95 45 229 61 370 21 177 29 200 33 92 2 -57 -5 -134 -18 -213z m66 159 c-9 -145 -43 -374 -57 -387 -8 -8 -9 0 -5 29 3 22 13 105 21 185 16 156 35 280 43 280 3 0 2 -48 -2 -107z m-1864 -155 c103 -68 207 -135 230 -149 24 -15 63 -39 88 -55 65 -41 70 -44 151 -93 204 -123 410 -254 405 -259 -5 -4 -292 163 -416 243 -36 23 -148 91 -250 150 -165 96 -340 209 -410 265 -23 18 -23 20 -5 20 11 0 104 -55 207 -122z m2923 -195 c-81 -156 -95 -178 -95 -150 0 9 17 45 38 79 21 35 58 100 82 146 23 45 45 81 47 78 3 -3 -29 -72 -72 -153z m-2100 37 c3 -5 4 -10 1 -10 -3 0 -8 5 -11 10 -3 6 -4 10 -1 10 3 0 8 -4 11 -10z m3024 -248 c1 -59 -10 -102 -27 -102 -7 0 -9 247 -3 305 5 42 29 -123 30 -203z m-4031 139 c82 -55 359 -227 577 -358 371 -222 488 -294 630 -385 88 -56 162 -106 163 -110 9 -20 22 -5 22 25 0 17 5 50 12 72 10 38 11 38 18 15 4 -14 10 -68 14 -120 13 -174 89 -446 149 -535 15 -21 25 -41 23 -43 -9 -8 -66 29 -84 55 -49 69 -132 347 -132 443 l0 47 -97 61 c-54 33 -127 77 -163 98 -36 20 -103 63 -150 94 -47 31 -130 84 -185 117 -55 33 -138 84 -185 113 -47 29 -141 86 -210 128 -175 106 -500 322 -500 333 0 15 9 11 98 -50z m2746 -166 c-41 -137 -149 -330 -252 -450 -28 -33 -49 -61 -48 -63 8 -7 262 78 369 123 13 5 17 2 17 -14 0 -25 -55 -52 -230 -111 -151 -51 -241 -74 -440 -111 -156 -30 -179 -32 -419 -33 -162 -1 -255 3 -258 9 -2 6 57 10 164 10 93 0 184 3 204 8 94 20 385 298 553 527 60 81 65 86 35 31 -62 -113 -311 -388 -448 -496 -34 -27 -60 -49 -59 -51 5 -5 263 35 338 52 70 17 79 22 146 86 118 114 262 334 309 472 23 67 39 76 19 11z m1020 -2 c39 -20 105 -54 146 -75 l75 -38 -45 6 c-25 4 -89 30 -145 60 -89 47 -104 52 -135 45 -45 -11 -93 -30 -100 -40 -9 -13 -392 -265 -433 -285 -70 -33 -50 -9 35 41 172 103 254 156 347 226 152 115 149 115 255 60z m-214 -347 c0 -6 -272 -158 -276 -154 -2 3 265 157 274 158 1 0 2 -2 2 -4z m-770 -170 c-66 -35 -343 -116 -445 -131 -22 -3 29 13 113 35 85 22 193 55 240 74 89 34 137 46 92 22z m460 0 c0 -2 -7 -7 -16 -10 -8 -3 -12 -2 -9 4 6 10 25 14 25 6z m-45 -24 c-18 -15 -118 -52 -124 -46 -3 4 1 9 9 12 101 39 130 48 115 34z m-908 -118 c-3 -3 -12 -4 -19 -1 -8 3 -5 6 6 6 11 1 17 -2 13 -5z m-40 -10 c-3 -3 -12 -4 -19 -1 -8 3 -5 6 6 6 11 1 17 -2 13 -5z m-76 -18 c-39 -14 -98 -77 -173 -185 -40 -58 -48 -75 -37 -82 11 -8 10 -9 -4 -7 -11 2 -27 -11 -45 -39 -15 -23 -49 -67 -76 -97 -27 -31 -47 -59 -44 -62 6 -5 255 71 380 116 45 16 83 28 85 27 5 -6 -170 -73 -347 -133 -91 -30 -179 -64 -196 -75 -65 -40 -55 -16 32 74 50 50 112 124 139 162 65 92 140 187 204 258 44 47 58 57 85 56 l31 -1 -34 -12z m-341 -61 c74 -9 140 -21 145 -27 7 -7 -4 -8 -35 -4 -25 4 -79 11 -120 16 -92 12 -180 30 -180 37 0 2 12 2 28 -1 15 -3 88 -12 162 -21z m790 -10 c-14 -8 -29 -14 -35 -14 -5 0 1 6 15 14 14 8 30 14 35 14 6 0 -1 -6 -15 -14z m-1068 -66 c15 -14 28 -29 28 -33 0 -12 -71 46 -82 68 -11 20 -10 20 8 6 10 -8 31 -27 46 -41z m1017 47 c-23 -24 -474 -167 -518 -165 -9 0 38 15 104 34 123 34 348 110 375 126 15 9 47 13 39 5z m-849 -102 c68 -24 58 -33 -14 -12 -36 10 -156 82 -156 93 0 3 24 -10 53 -27 28 -17 81 -41 117 -54z m307 -70 c-3 -3 -12 -4 -19 -1 -8 3 -5 6 6 6 11 1 17 -2 13 -5z m-321 -171 c-7 -7 -39 13 -66 42 -24 26 -23 26 23 -5 27 -18 46 -34 43 -37z"/> </g> </svg>