<?xml version="1.0" standalone="no"?>
<!DOCTYPE svg PUBLIC "-//W3C//DTD SVG 20010904//EN"
 "http://www.w3.org/TR/2001/REC-SVG-20010904/DTD/svg10.dtd">
<svg version="1.0" xmlns="http://www.w3.org/2000/svg"
 width="90.000000pt" height="73.000000pt" viewBox="0 0 90.000000 73.000000"
 preserveAspectRatio="xMidYMid meet">
<g transform="translate(0.000000,73.000000) scale(0.100000,-0.100000)"
fill="#000000" stroke="none">
<path d="M400 636 c-28 -8 -49 -20 -56 -34 -34 -69 -62 -76 -115 -27 -48 44
-81 52 -133 34 -50 -17 -57 -44 -25 -95 40 -66 105 -90 159 -59 35 20 37 19
43 -17 11 -74 29 -157 49 -219 13 -42 18 -77 14 -96 -12 -52 33 -80 133 -81
95 -2 137 25 125 81 -3 17 2 56 14 95 20 68 43 171 46 207 3 38 15 48 42 31
52 -35 131 -3 169 68 24 45 14 66 -41 84 -50 17 -79 9 -122 -34 -49 -49 -81
-43 -115 22 -24 46 -102 63 -187 40z"/>
</g>
</svg>
